<mxfile host="app.diagrams.net" modified="2021-07-12T12:23:31.494Z" agent="5.0 (Macintosh; Intel Mac OS X 10_15_7) AppleWebKit/537.36 (KHTML, like Gecko) Chrome/91.0.4472.114 Safari/537.36" etag="3FxIhV8wJDKplTTKZkIz" version="14.8.5" type="github">
  <diagram id="6d5Oo7TDGGMNKbSaTagi" name="Page-1">
    <mxGraphModel dx="946" dy="614" grid="1" gridSize="10" guides="1" tooltips="1" connect="1" arrows="1" fold="1" page="1" pageScale="1" pageWidth="827" pageHeight="1169" math="0" shadow="0">
      <root>
        <mxCell id="0" />
        <mxCell id="1" parent="0" />
        <mxCell id="qSk-eQew5wcTOfXiKOYe-7" value="" style="shape=table;startSize=0;container=1;collapsible=0;childLayout=tableLayout;" vertex="1" parent="1">
          <mxGeometry x="380" y="220" width="60" height="200" as="geometry" />
        </mxCell>
        <mxCell id="qSk-eQew5wcTOfXiKOYe-8" value="" style="shape=partialRectangle;collapsible=0;dropTarget=0;pointerEvents=0;fillColor=none;top=0;left=0;bottom=0;right=0;points=[[0,0.5],[1,0.5]];portConstraint=eastwest;" vertex="1" parent="qSk-eQew5wcTOfXiKOYe-7">
          <mxGeometry width="60" height="40" as="geometry" />
        </mxCell>
        <mxCell id="qSk-eQew5wcTOfXiKOYe-9" value="CL" style="shape=partialRectangle;html=1;whiteSpace=wrap;connectable=0;overflow=hidden;fillColor=none;top=0;left=0;bottom=0;right=0;" vertex="1" parent="qSk-eQew5wcTOfXiKOYe-8">
          <mxGeometry width="60" height="40" as="geometry" />
        </mxCell>
        <mxCell id="qSk-eQew5wcTOfXiKOYe-10" value="" style="shape=partialRectangle;collapsible=0;dropTarget=0;pointerEvents=0;fillColor=none;top=0;left=0;bottom=0;right=0;points=[[0,0.5],[1,0.5]];portConstraint=eastwest;" vertex="1" parent="qSk-eQew5wcTOfXiKOYe-7">
          <mxGeometry y="40" width="60" height="40" as="geometry" />
        </mxCell>
        <mxCell id="qSk-eQew5wcTOfXiKOYe-11" value="" style="shape=partialRectangle;html=1;whiteSpace=wrap;connectable=0;overflow=hidden;fillColor=none;top=0;left=0;bottom=0;right=0;" vertex="1" parent="qSk-eQew5wcTOfXiKOYe-10">
          <mxGeometry width="60" height="40" as="geometry" />
        </mxCell>
        <mxCell id="qSk-eQew5wcTOfXiKOYe-12" value="" style="shape=partialRectangle;collapsible=0;dropTarget=0;pointerEvents=0;fillColor=none;top=0;left=0;bottom=0;right=0;points=[[0,0.5],[1,0.5]];portConstraint=eastwest;" vertex="1" parent="qSk-eQew5wcTOfXiKOYe-7">
          <mxGeometry y="80" width="60" height="40" as="geometry" />
        </mxCell>
        <mxCell id="qSk-eQew5wcTOfXiKOYe-13" value="" style="shape=partialRectangle;html=1;whiteSpace=wrap;connectable=0;overflow=hidden;fillColor=none;top=0;left=0;bottom=0;right=0;" vertex="1" parent="qSk-eQew5wcTOfXiKOYe-12">
          <mxGeometry width="60" height="40" as="geometry" />
        </mxCell>
        <mxCell id="qSk-eQew5wcTOfXiKOYe-14" value="" style="shape=partialRectangle;collapsible=0;dropTarget=0;pointerEvents=0;fillColor=none;top=0;left=0;bottom=0;right=0;points=[[0,0.5],[1,0.5]];portConstraint=eastwest;" vertex="1" parent="qSk-eQew5wcTOfXiKOYe-7">
          <mxGeometry y="120" width="60" height="40" as="geometry" />
        </mxCell>
        <mxCell id="qSk-eQew5wcTOfXiKOYe-15" value="" style="shape=partialRectangle;html=1;whiteSpace=wrap;connectable=0;overflow=hidden;fillColor=none;top=0;left=0;bottom=0;right=0;" vertex="1" parent="qSk-eQew5wcTOfXiKOYe-14">
          <mxGeometry width="60" height="40" as="geometry" />
        </mxCell>
        <mxCell id="qSk-eQew5wcTOfXiKOYe-16" value="" style="shape=partialRectangle;collapsible=0;dropTarget=0;pointerEvents=0;fillColor=none;top=0;left=0;bottom=0;right=0;points=[[0,0.5],[1,0.5]];portConstraint=eastwest;" vertex="1" parent="qSk-eQew5wcTOfXiKOYe-7">
          <mxGeometry y="160" width="60" height="40" as="geometry" />
        </mxCell>
        <mxCell id="qSk-eQew5wcTOfXiKOYe-17" value="" style="shape=partialRectangle;html=1;whiteSpace=wrap;connectable=0;overflow=hidden;fillColor=none;top=0;left=0;bottom=0;right=0;" vertex="1" parent="qSk-eQew5wcTOfXiKOYe-16">
          <mxGeometry width="60" height="40" as="geometry" />
        </mxCell>
      </root>
    </mxGraphModel>
  </diagram>
</mxfile>
